<?xml version="1.0" encoding="UTF-8" standalone="no"?>
<!DOCTYPE svg PUBLIC "-//W3C//DTD SVG 1.1//EN" "http://www.w3.org/Graphics/SVG/1.1/DTD/svg11.dtd">
<svg width="100%" height="100%" viewBox="0 0 512 512" version="1.1" xmlns="http://www.w3.org/2000/svg" xmlns:xlink="http://www.w3.org/1999/xlink" xml:space="preserve" xmlns:serif="http://www.serif.com/" style="fill-rule:evenodd;clip-rule:evenodd;stroke-linejoin:round;stroke-miterlimit:2;">
    <rect x="0" y="0" width="512" height="512" style="fill:rgb(243,167,18);"/>
    <g transform="matrix(6.68623,0,0,6.68623,42.0406,42.0406)">
        <path d="M53.979,9.143L50.011,9.143C49.928,9.143 49.855,9.171 49.778,9.19L49.778,5.023C49.778,2.253 47.473,0 44.64,0L10.217,0C7.384,0 5.079,2.253 5.079,5.023L5.079,51.866C5.079,54.636 7.384,56.889 10.217,56.889L16.254,56.889L16.254,59.157C16.254,61.827 18.47,64 21.195,64L53.979,64C56.704,64 58.921,61.827 58.921,59.157L58.921,13.986C58.921,11.316 56.704,9.143 53.979,9.143ZM7.111,51.866L7.111,5.023C7.111,3.374 8.505,2.032 10.217,2.032L44.64,2.032C46.352,2.032 47.746,3.374 47.746,5.023L47.746,51.866C47.746,53.515 46.352,54.857 44.64,54.857L10.217,54.857C8.505,54.857 7.111,53.515 7.111,51.866ZM56.889,59.157C56.889,60.707 55.583,61.968 53.979,61.968L21.195,61.968C19.591,61.968 18.286,60.707 18.286,59.157L18.286,56.889L44.64,56.889C47.473,56.889 49.778,54.636 49.778,51.866L49.778,11.128C49.855,11.146 49.928,11.175 50.011,11.175L53.979,11.175C55.583,11.175 56.889,12.436 56.889,13.986L56.889,59.157Z" style="fill-rule:nonzero;"/>
    </g>
    <g transform="matrix(6.68623,0,0,6.68623,42.0406,42.0406)">
        <path d="M38.603,13.206L16.254,13.206C15.692,13.206 15.238,13.661 15.238,14.222C15.238,14.784 15.692,15.238 16.254,15.238L38.603,15.238C39.165,15.238 39.619,14.784 39.619,14.222C39.619,13.661 39.165,13.206 38.603,13.206Z" style="fill-rule:nonzero;"/>
    </g>
    <g transform="matrix(6.68623,0,0,6.68623,42.0406,42.0406)">
        <path d="M38.603,21.333L16.254,21.333C15.692,21.333 15.238,21.788 15.238,22.349C15.238,22.911 15.692,23.365 16.254,23.365L38.603,23.365C39.165,23.365 39.619,22.911 39.619,22.349C39.619,21.788 39.165,21.333 38.603,21.333Z" style="fill-rule:nonzero;"/>
    </g>
    <g transform="matrix(6.68623,0,0,6.68623,42.0406,42.0406)">
        <path d="M38.603,29.46L16.254,29.46C15.692,29.46 15.238,29.915 15.238,30.476C15.238,31.038 15.692,31.492 16.254,31.492L38.603,31.492C39.165,31.492 39.619,31.038 39.619,30.476C39.619,29.915 39.165,29.46 38.603,29.46Z" style="fill-rule:nonzero;"/>
    </g>
    <g transform="matrix(6.68623,0,0,6.68623,42.0406,42.0406)">
        <path d="M28.444,37.587L16.254,37.587C15.692,37.587 15.238,38.042 15.238,38.603C15.238,39.165 15.692,39.619 16.254,39.619L28.444,39.619C29.006,39.619 29.46,39.165 29.46,38.603C29.46,38.042 29.006,37.587 28.444,37.587Z" style="fill-rule:nonzero;"/>
    </g>
</svg>