<?xml version="1.0" encoding="UTF-8" standalone="no"?>
<!DOCTYPE svg PUBLIC "-//W3C//DTD SVG 1.1//EN" "http://www.w3.org/Graphics/SVG/1.1/DTD/svg11.dtd">
<svg width="100%" height="100%" viewBox="0 0 64 64" version="1.1" xmlns="http://www.w3.org/2000/svg" xmlns:xlink="http://www.w3.org/1999/xlink" xml:space="preserve" xmlns:serif="http://www.serif.com/" style="fill-rule:evenodd;clip-rule:evenodd;stroke-linejoin:round;stroke-miterlimit:2;">
    <g transform="matrix(1,0,0,1,-3.78789,-3.36674)">
		<rect x="0" y="0" width="24" height="24" style="fill:white;"/>
		<g transform="matrix(3.55556,0,0,3.55556,-6.87878,-7.29993)">
			<path d="M4,3L20,3C20.549,3 21,3.451 21,4L21,20C21,20.549 20.549,21 20,21L4,21C3.451,21 3,20.549 3,20L3,4C3,3.451 3.451,3 4,3ZM11.003,16L18.073,8.929L16.659,7.515L11.003,13.172L8.174,10.343L6.76,11.757L11.003,16Z" style="fill:white;fill-rule:nonzero;"/>
		</g>
    </g>
</svg>