<?xml version="1.0" encoding="UTF-8" standalone="no"?>
<!DOCTYPE svg PUBLIC "-//W3C//DTD SVG 1.1//EN" "http://www.w3.org/Graphics/SVG/1.1/DTD/svg11.dtd">
<svg width="100%" height="100%" viewBox="0 0 64 64" version="1.1" xmlns="http://www.w3.org/2000/svg" xmlns:xlink="http://www.w3.org/1999/xlink" xml:space="preserve" xmlns:serif="http://www.serif.com/" style="fill-rule:evenodd;clip-rule:evenodd;stroke-linejoin:round;stroke-miterlimit:2;">
    <g transform="matrix(1.33333,0,0,1.33333,-2.66667,-2.66667)">
        <path d="M26,2C12.7,2 2,12.7 2,26C2,39.3 12.7,50 26,50C39.3,50 50,39.3 50,26C50,12.7 39.3,2 26,2ZM30.9,26.8L38.7,34.6C39.1,35 39.1,35.6 38.7,36L35.9,38.8C35.5,39.2 34.9,39.2 34.5,38.8L26.7,31C26.3,30.6 25.7,30.6 25.3,31L17.5,38.8C17.1,39.2 16.5,39.2 16.1,38.8L13.3,36C12.9,35.6 12.9,35 13.3,34.6L21.1,26.8C21.5,26.4 21.5,25.8 21.1,25.4L13.2,17.5C12.8,17.1 12.8,16.5 13.2,16.1L16,13.3C16.4,12.9 17,12.9 17.4,13.3L25.3,21.2C25.7,21.6 26.3,21.6 26.7,21.2L34.5,13.4C34.9,13 35.5,13 35.9,13.4L38.7,16.2C39.1,16.6 39.1,17.2 38.7,17.6L30.9,25.4C30.6,25.8 30.6,26.4 30.9,26.8Z" style="fill-rule:nonzero;"/>
    </g>
</svg>