<?xml version="1.0" encoding="UTF-8" standalone="no"?>
<!DOCTYPE svg PUBLIC "-//W3C//DTD SVG 1.1//EN" "http://www.w3.org/Graphics/SVG/1.1/DTD/svg11.dtd">
<svg width="100%" height="100%" viewBox="0 0 64 64" version="1.1" xmlns="http://www.w3.org/2000/svg" xmlns:xlink="http://www.w3.org/1999/xlink" xml:space="preserve" xmlns:serif="http://www.serif.com/" style="fill-rule:evenodd;clip-rule:evenodd;stroke-linejoin:round;stroke-miterlimit:2;">
    <g transform="matrix(0.131959,0,0,0.131959,22.7927,0)">
        <path d="M312.274,30L312.274,0L172.726,0L172.726,30L227.5,30L227.5,227.5L202.5,227.5L202.5,257.5L227.5,257.5L227.5,455L172.726,455L172.726,485L312.274,485L312.274,455L257.5,455L257.5,257.5L282.5,257.5L282.5,227.5L257.5,227.5L257.5,30L312.274,30Z" style="fill-rule:nonzero;"/>
    </g>
    <g transform="matrix(0.982029,0,0,0.982029,0,0.593456)">
        <rect x="0" y="7.962" width="48.878" height="48.038"/>
    </g>
</svg>